<svg width="32" height="32" viewBox="0 0 32 32" fill="none" xmlns="http://www.w3.org/2000/svg">
<path d="M17.85 16L27.225 4.825C27.3821 4.63929 27.25 4.35714 27.0071 4.35714H24.1571C23.9893 4.35714 23.8286 4.43214 23.7179 4.56071L15.9857 13.7786L8.25357 4.56071C8.14643 4.43214 7.98571 4.35714 7.81428 4.35714H4.96428C4.72143 4.35714 4.58928 4.63929 4.74643 4.825L14.1214 16L4.74643 27.175C4.71123 27.2164 4.68864 27.267 4.68136 27.3209C4.67407 27.3747 4.68239 27.4295 4.70533 27.4788C4.72827 27.528 4.76486 27.5697 4.81076 27.5988C4.85666 27.6279 4.90995 27.6432 4.96428 27.6429H7.81428C7.98214 27.6429 8.14286 27.5679 8.25357 27.4393L15.9857 18.2214L23.7179 27.4393C23.825 27.5679 23.9857 27.6429 24.1571 27.6429H27.0071C27.25 27.6429 27.3821 27.3607 27.225 27.175L17.85 16Z" fill="black"/>
</svg>
