<svg width="512" height="512" viewBox="0 0 512 512" fill="none" xmlns="http://www.w3.org/2000/svg">
<g id="Type=Default, showText=True, showSymbol=False">
<g id="Group 1">
<path id="Shape" fill-rule="evenodd" clip-rule="evenodd" d="M109.946 261.854C109.946 259.77 108.788 257.803 106.937 256.761L57.8662 228.523C57.0561 228.06 56.1302 227.828 55.2043 227.712H54.7414C53.8156 227.712 52.8897 228.06 52.0796 228.523L3.00904 256.761C1.15732 257.803 0 259.77 0 261.854L0.115732 337.774C0.115732 338.816 0.694394 339.857 1.62025 340.32C2.54611 340.899 3.70344 340.899 4.51356 340.32L33.6781 323.655C35.5298 322.613 36.6872 320.646 36.6872 318.562V283.033C36.6872 280.949 37.8445 278.982 39.6962 277.94L52.0796 270.765C53.0054 270.186 54.047 269.955 55.0886 269.955C56.1302 269.955 57.1718 270.186 57.9819 270.765L70.3653 277.94C72.217 278.982 73.3743 280.949 73.3743 283.033V318.562C73.3743 320.646 74.5317 322.613 76.3834 323.655L105.548 340.32C106.474 340.899 107.631 340.899 108.557 340.32C109.483 339.857 110.062 338.816 110.062 337.774L109.946 261.854Z" fill="#333333"/>
<path id="Shape_2" fill-rule="evenodd" clip-rule="evenodd" d="M345.807 157.347C344.881 156.884 343.724 156.884 342.914 157.347C341.988 157.926 341.409 158.852 341.409 159.893V235.119C341.409 235.814 341.062 236.508 340.368 236.971C339.674 237.318 338.979 237.318 338.285 236.971L326.017 229.911C324.165 228.87 321.966 228.87 320.115 229.911L271.044 258.266C269.192 259.307 268.035 261.275 268.035 263.358V319.951C268.035 322.034 269.192 324.002 271.044 325.043L320.115 353.398C321.966 354.439 324.165 354.439 326.017 353.398L375.088 325.043C376.939 324.002 378.097 322.034 378.097 319.951V178.873C378.097 176.675 376.939 174.707 375.088 173.665L345.807 157.347ZM341.293 301.318C341.293 301.897 341.062 302.36 340.599 302.591L323.818 312.313C323.355 312.544 322.776 312.544 322.313 312.313L305.532 302.591C305.069 302.36 304.838 301.781 304.838 301.318V281.875C304.838 281.297 305.069 280.834 305.532 280.602L322.313 270.881C322.776 270.649 323.355 270.649 323.818 270.881L340.599 280.602C341.062 280.834 341.293 281.412 341.293 281.875V301.318Z" fill="#333333"/>
<g id="Group">
<path id="Shape_3" fill-rule="evenodd" clip-rule="evenodd" d="M509.107 281.412C510.958 280.371 512 278.403 512 276.32V262.548C512 260.465 510.843 258.497 509.107 257.456L460.383 229.217C458.532 228.175 456.333 228.175 454.481 229.217L405.41 257.571C403.559 258.613 402.401 260.58 402.401 262.664V319.257C402.401 321.34 403.559 323.307 405.41 324.349L454.134 352.125C455.985 353.166 458.184 353.166 459.92 352.125L489.432 335.691C490.358 335.228 490.937 334.186 490.937 333.145C490.937 332.103 490.358 331.062 489.432 330.599L440.13 302.244C439.204 301.665 438.626 300.74 438.626 299.698V281.991C438.626 280.949 439.204 279.908 440.13 279.445L455.523 270.649C456.448 270.071 457.606 270.071 458.532 270.649L473.924 279.445C474.85 280.024 475.429 280.949 475.429 281.991V295.879C475.429 296.92 476.007 297.962 476.933 298.425C477.859 299.004 479.016 299.004 479.942 298.425L509.107 281.412Z" fill="#333333"/>
<path id="Shape_4" fill-rule="evenodd" clip-rule="evenodd" d="M456.68 278.751C457.027 278.519 457.49 278.519 457.837 278.751L467.211 284.19C467.558 284.421 467.79 284.769 467.79 285.232V296.11C467.79 296.573 467.558 296.92 467.211 297.152L457.837 302.591C457.49 302.823 457.027 302.823 456.68 302.591L447.305 297.152C446.958 296.92 446.727 296.573 446.727 296.11V285.232C446.727 284.769 446.958 284.421 447.305 284.19L456.68 278.751Z" fill="#539E43"/>
</g>
<g id="Group_2">
<g id="mask-3">
<path id="path-2" fill-rule="evenodd" clip-rule="evenodd" d="M191.999 229.448C190.148 228.407 187.949 228.407 186.097 229.448L137.374 257.571C135.522 258.613 134.48 260.581 134.48 262.664V319.025C134.48 321.109 135.638 323.076 137.374 324.118L186.097 352.241C187.949 353.282 190.148 353.282 191.999 352.241L240.723 324.118C242.575 323.076 243.616 321.109 243.616 319.025V262.664C243.616 260.581 242.459 258.613 240.723 257.571L191.999 229.448Z" fill="white"/>
</g>
<g id="path-2-link">
<path id="path-2_2" fill-rule="evenodd" clip-rule="evenodd" d="M191.999 229.448C190.148 228.407 187.949 228.407 186.097 229.448L137.374 257.571C135.522 258.613 134.48 260.581 134.48 262.664V319.025C134.48 321.109 135.638 323.076 137.374 324.118L186.097 352.241C187.949 353.282 190.148 353.282 191.999 352.241L240.723 324.118C242.575 323.076 243.616 321.109 243.616 319.025V262.664C243.616 260.581 242.459 258.613 240.723 257.571L191.999 229.448Z" fill="url(#paint0_linear_337_373)"/>
</g>
<g id="Clipped">
<mask id="mask0_337_373" style="mask-type:alpha" maskUnits="userSpaceOnUse" x="134" y="228" width="110" height="126">
<path id="path-2_3" fill-rule="evenodd" clip-rule="evenodd" d="M191.999 229.448C190.148 228.407 187.949 228.407 186.097 229.448L137.374 257.571C135.522 258.613 134.48 260.581 134.48 262.664V319.025C134.48 321.109 135.638 323.076 137.374 324.118L186.097 352.241C187.949 353.282 190.148 353.282 191.999 352.241L240.723 324.118C242.575 323.076 243.616 321.109 243.616 319.025V262.664C243.616 260.581 242.459 258.613 240.723 257.571L191.999 229.448Z" fill="white"/>
</mask>
<g mask="url(#mask0_337_373)">
<path id="Shape_5" fill-rule="evenodd" clip-rule="evenodd" d="M240.839 257.571L191.884 229.449C191.421 229.217 190.843 228.986 190.38 228.87L135.522 322.845C135.985 323.423 136.564 323.886 137.143 324.233L186.098 352.356C187.486 353.166 189.107 353.398 190.611 352.935L242.112 258.729C241.765 258.266 241.302 257.919 240.839 257.571Z" fill="url(#paint1_linear_337_373)"/>
</g>
</g>
<g id="Clipped_2">
<mask id="mask1_337_373" style="mask-type:alpha" maskUnits="userSpaceOnUse" x="134" y="228" width="110" height="126">
<path id="path-2_4" fill-rule="evenodd" clip-rule="evenodd" d="M191.999 229.448C190.148 228.407 187.949 228.407 186.097 229.448L137.374 257.571C135.522 258.613 134.48 260.581 134.48 262.664V319.025C134.48 321.109 135.638 323.076 137.374 324.118L186.097 352.241C187.949 353.282 190.148 353.282 191.999 352.241L240.723 324.118C242.575 323.076 243.616 321.109 243.616 319.025V262.664C243.616 260.581 242.459 258.613 240.723 257.571L191.999 229.448Z" fill="white"/>
</mask>
<g mask="url(#mask1_337_373)">
<path id="Shape_6" fill-rule="evenodd" clip-rule="evenodd" d="M240.955 324.118C242.343 323.307 243.385 321.919 243.848 320.414L190.148 228.754C188.759 228.523 187.255 228.638 185.982 229.449L137.374 257.456L189.801 353.051C190.495 352.935 191.305 352.703 192 352.356L240.955 324.118Z" fill="url(#paint2_linear_337_373)"/>
<path id="Shape_7" fill-rule="evenodd" clip-rule="evenodd" d="M240.954 324.118L192.115 352.241C191.421 352.588 190.726 352.819 189.916 352.935L190.842 354.671L245.005 323.307V322.613L243.616 320.298C243.384 321.919 242.343 323.307 240.954 324.118Z" fill="url(#paint3_linear_337_373)"/>
<path id="Shape_8" fill-rule="evenodd" clip-rule="evenodd" d="M240.954 324.118L192.115 352.241C191.421 352.588 190.726 352.819 189.916 352.935L190.842 354.671L245.005 323.307V322.613L243.616 320.298C243.384 321.919 242.343 323.307 240.954 324.118Z" fill="url(#paint4_linear_337_373)"/>
</g>
</g>
</g>
</g>
</g>
<defs>
<linearGradient id="paint0_linear_337_373" x1="178.525" y1="234.605" x2="126.661" y2="297.37" gradientUnits="userSpaceOnUse">
<stop stop-color="#41873F"/>
<stop offset="0.3288" stop-color="#418B3D"/>
<stop offset="0.6352" stop-color="#419637"/>
<stop offset="0.9319" stop-color="#3FA92D"/>
<stop offset="1" stop-color="#3FAE2A"/>
</linearGradient>
<linearGradient id="paint1_linear_337_373" x1="210.445" y1="367.82" x2="340.179" y2="315.991" gradientUnits="userSpaceOnUse">
<stop offset="0.1376" stop-color="#41873F"/>
<stop offset="0.4032" stop-color="#54A044"/>
<stop offset="0.7136" stop-color="#66B848"/>
<stop offset="0.9081" stop-color="#6CC04A"/>
</linearGradient>
<linearGradient id="paint2_linear_337_373" x1="132.701" y1="356.71" x2="245.444" y2="356.71" gradientUnits="userSpaceOnUse">
<stop offset="0.0919165" stop-color="#6CC04A"/>
<stop offset="0.2864" stop-color="#66B848"/>
<stop offset="0.5968" stop-color="#54A044"/>
<stop offset="0.8624" stop-color="#41873F"/>
</linearGradient>
<linearGradient id="paint3_linear_337_373" x1="132.701" y1="372.752" x2="245.444" y2="372.752" gradientUnits="userSpaceOnUse">
<stop offset="0.0919165" stop-color="#6CC04A"/>
<stop offset="0.2864" stop-color="#66B848"/>
<stop offset="0.5968" stop-color="#54A044"/>
<stop offset="0.8624" stop-color="#41873F"/>
</linearGradient>
<linearGradient id="paint4_linear_337_373" x1="121.081" y1="239.303" x2="110.451" y2="382.372" gradientUnits="userSpaceOnUse">
<stop stop-color="#41873F"/>
<stop offset="0.3288" stop-color="#418B3D"/>
<stop offset="0.6352" stop-color="#419637"/>
<stop offset="0.9319" stop-color="#3FA92D"/>
<stop offset="1" stop-color="#3FAE2A"/>
</linearGradient>
</defs>
</svg>
